<svg xmlns="http://www.w3.org/2000/svg" width="96" height="96" viewBox="0 0 96 96" role="img" aria-labelledby="title desc">
  <title id="title">Cloud weather icon</title>
  <desc id="desc">A simple cloud icon for the Cape Town weather section.</desc>
  <defs>
    <linearGradient id="sky" x1="0%" y1="0%" x2="100%" y2="100%">
      <stop offset="0%" stop-color="#a9d8ff"/>
      <stop offset="100%" stop-color="#6f9ff5"/>
    </linearGradient>
  </defs>
  <rect width="96" height="96" rx="24" fill="url(#sky)"/>
  <path d="M25 55C25 43.954 33.954 35 45 35C52.366 35 58.748 38.648 62.222 44.53C64.54 43.42 67.177 42.8 70 42.8C79.389 42.8 87 50.411 87 59.8C87 69.189 79.389 76.8 70 76.8H45C33.954 76.8 25 67.846 25 56.8V55Z" fill="#ffffff"/>
  <path d="M52 52C52 48.686 54.686 46 58 46H67C70.314 46 73 48.686 73 52V52" fill="#dfefff"/>
</svg>